# xmcd
# 
# Track frame offsets:
#     150
#     14625
#     29859
#     46555
#     60864
#     75153
#     88635
#     106199
#     122400
#     135571
#     149462
# 
# Disc length: 2201
# 
# Revision: 0
# Processed by: cddbd v1.5.2PL0 Copyright (c) Steve Scherf et al.
# Submitted via: BonkEnc v1.0.0
# 
DISCID=8108970b
DTITLE=Chet Atkins - The Day The Finger Pickers Took Over The World
DYEAR=0
DGENRE=Country
TTITLE0=Borsalino
TTITLE1=To' B' Or Not To' B'
TTITLE2=The Day Finger Pickers
TTITLE3=Tip Toe Through The Bluegrass
TTITLE4=News From The Outback
TTITLE5=Ode To Mel Bay
TTITLE6=Dixie McGuire
TTITLE7=Saltwater
TTITLE8=Mr. Guitar
TTITLE9=Road To Gundaghi - Waltzing Matilda
TTITLE10=Smokey Mountain Lullaby
EXTD=With Tommy Emmanuel
EXTT0=
EXTT1=
EXTT2=
EXTT3=
EXTT4=
EXTT5=
EXTT6=
EXTT7=
EXTT8=
EXTT9=
EXTT10=
PLAYORDER=
